# xmcd
#
# Track frame offsets: 
#        150
#        14699
#        27596
#        41269
#        51529
#        64336
#        75705
#        85023
#        98353
#        109656
#        124852
#        135203
#        147217
#        160357
#        172506
#        183828
#        195329
#        204698
#        217137
#        240426
#        253433
#        266703
#        279103
#        296699
#        308239
#        320073
#        333450
#
# Disc length: 4640 seconds
#
# Revision: 2
# Processed by: cddbd v1.5.2PL0 Copyright (c) Steve Scherf et al.
# Submitted via: ExactAudioCopy v0.90b4
#
DISCID=88121e1b
DTITLE=Waylon Jennings - The Journey - Six Strings Away Vol. 1
DYEAR=1999
DGENRE=Country
TTITLE0=Folsom Prison Blues
TTITLE1=Today I Started Loving You Again
TTITLE2=If You Were Mine To Lose
TTITLE3=Six Strings Away
TTITLE4=Cedartown Georgia
TTITLE5=I Lost Me
TTITLE6=Brown Eyed Handsome Man
TTITLE7=Alone
TTITLE8=Something's Wrong In California
TTITLE9=The Days Of Sand And Shovels
TTITLE10=Just To Satisfy You
TTITLE11=For The Kids
TTITLE12=Farewell Party
TTITLE13=Sing The Blues To Daddy (& Bobby Bare)
TTITLE14=Change My Mind
TTITLE15=Lonely Weekends
TTITLE16=A World Of Our Own
TTITLE17=Come Stay With Me
TTITLE18=MacArthur Park
TTITLE19=Long Way Back Home
TTITLE20=These New Changing Times
TTITLE21=Cindy, Oh Cindy
TTITLE22=Mary Ann Regrets
TTITLE23=But You Know I Love You
TTITLE24=Drivin' Nails In The Wall
TTITLE25=Let Me Tell You My Mind
TTITLE26=Games People Play
EXTD=
EXTT0=
EXTT1=
EXTT2=
EXTT3=
EXTT4=
EXTT5=
EXTT6=
EXTT7=
EXTT8=
EXTT9=
EXTT10=
EXTT11=
EXTT12=
EXTT13=
EXTT14=
EXTT15=
EXTT16=
EXTT17=
EXTT18=
EXTT19=
EXTT20=
EXTT21=
EXTT22=
EXTT23=
EXTT24=
EXTT25=
EXTT26=
PLAYORDER=
